<?xml version="1.0" standalone="no"?>
<!DOCTYPE svg PUBLIC "-//W3C//DTD SVG 20010904//EN"
 "http://www.w3.org/TR/2001/REC-SVG-20010904/DTD/svg10.dtd">
<svg version="1.0" xmlns="http://www.w3.org/2000/svg"
 width="894.000000pt" height="894.000000pt" viewBox="0 0 894.000000 894.000000"
 preserveAspectRatio="xMidYMid meet">
<metadata>
Created by potrace 1.11, written by Peter Selinger 2001-2013
</metadata>
<g transform="translate(0.000000,894.000000) scale(0.100000,-0.100000)"
fill="#000000" stroke="none">
<path d="M4205 8919 c-137 -8 -306 -27 -314 -34 -3 -4 8 -102 24 -220 2 -16
20 -151 40 -300 20 -148 45 -333 55 -410 11 -77 26 -196 34 -265 8 -69 24
-192 36 -275 11 -82 25 -184 30 -225 35 -290 140 -1073 145 -1078 2 -2 99 -3
216 -3 l214 0 72 543 c40 299 97 734 127 968 31 234 80 614 111 844 30 231 54
421 52 422 -7 7 -189 25 -347 34 -196 11 -292 11 -495 -1z m399 -128 c33 -31
36 -89 7 -115 -19 -18 -19 -18 7 -41 22 -19 27 -31 26 -66 -3 -85 -76 -116
-259 -107 l-70 3 -3 178 -2 179 134 -4 c126 -3 136 -4 160 -27z m-21 -535 c32
-85 57 -159 57 -165 0 -7 -20 -11 -48 -11 -42 0 -50 3 -60 25 -10 22 -18 25
-62 25 -45 0 -52 -3 -60 -25 -8 -22 -15 -25 -60 -25 -27 0 -50 1 -50 3 0 3 90
250 109 300 10 25 15 27 64 27 l54 0 56 -154z m-111 -313 l53 -86 3 86 3 87
44 0 45 0 0 -156 0 -155 -47 3 -48 3 -52 84 -53 84 0 -86 0 -87 -50 0 -50 0 0
155 0 155 50 0 49 0 53 -87z m-42 -323 c0 -22 4 -40 9 -40 5 0 25 18 45 40 34
38 39 40 93 40 l57 0 -53 -54 -53 -54 61 -91 62 -91 -58 0 -58 0 -39 62 c-36
58 -39 61 -52 43 -8 -10 -14 -38 -14 -62 l0 -43 -45 0 -45 0 0 145 0 145 45 0
45 0 0 -40z m104 -310 c21 -4 46 -15 54 -24 21 -21 19 -71 -3 -96 -17 -19 -17
-21 -2 -33 11 -7 20 -33 24 -64 l6 -53 -47 0 -46 0 0 40 c0 42 -18 60 -59 60
-18 0 -21 -6 -21 -50 l0 -50 -45 0 -45 0 0 140 0 140 73 0 c39 0 90 -5 111
-10z m16 -335 c37 -19 60 -62 60 -113 0 -118 -151 -173 -237 -87 -28 28 -33
40 -33 78 0 63 14 94 52 117 40 24 116 27 158 5z m30 -310 c0 -23 -4 -24 -62
-27 -50 -2 -63 -6 -66 -20 -3 -15 5 -18 52 -18 53 0 56 -1 56 -24 0 -23 -4
-25 -52 -28 -41 -2 -54 -7 -56 -20 -3 -16 5 -18 62 -18 l66 0 0 -30 0 -30
-105 0 -105 0 0 120 0 120 105 0 c105 0 105 0 105 -25z m-10 -295 c0 -27 -3
-30 -30 -30 l-30 0 0 -75 0 -75 -35 0 -35 0 0 75 0 75 -30 0 c-32 0 -47 18
-36 45 4 12 25 15 101 15 l95 0 0 -30z"/>
<path d="M4430 8710 c0 -30 1 -31 43 -28 37 3 42 6 42 28 0 22 -5 25 -42 28
-42 3 -43 2 -43 -28z"/>
<path d="M4430 8580 c0 -31 0 -31 48 -28 43 3 47 5 47 28 0 23 -4 25 -47 28
-48 3 -48 3 -48 -28z"/>
<path d="M4467 8290 c-14 -41 -27 -84 -27 -91 0 -5 14 -9 30 -9 25 0 30 4 29
23 -1 35 -26 95 -32 77z"/>
<path d="M4440 7225 c0 -24 3 -26 38 -23 29 2 37 7 37 23 0 16 -8 21 -37 23
-35 3 -38 1 -38 -23z"/>
<path d="M4430 6911 c-14 -27 -13 -74 3 -95 9 -12 23 -17 47 -14 31 3 36 7 44
40 7 29 6 42 -8 62 -21 32 -70 36 -86 7z"/>
<path d="M3450 8715 c-25 -7 -57 -16 -71 -19 -20 -4 -32 -18 -48 -57 -12 -28
-49 -107 -82 -175 l-59 -125 16 -64 c9 -36 19 -65 23 -65 3 0 49 12 101 26
135 37 132 37 148 -19 l14 -49 36 8 c21 4 47 8 60 8 12 1 22 4 22 9 0 4 7 7
16 7 14 0 15 7 10 38 -3 20 -9 47 -12 60 -5 18 -2 22 18 22 14 0 27 2 30 5 3
4 -2 33 -10 66 -16 60 -17 60 -48 55 -35 -7 -30 -19 -80 177 -15 59 -30 107
-33 106 -3 0 -26 -6 -51 -14z m-35 -256 c8 -29 12 -55 9 -58 -8 -9 -88 -31
-92 -26 -3 2 10 36 28 75 19 38 35 68 37 66 3 -2 11 -28 18 -57z"/>
<path d="M5385 8603 c-79 -166 -79 -155 2 -180 43 -13 82 -19 106 -16 72 10
104 -61 51 -113 -30 -30 -68 -27 -96 9 -10 12 -22 27 -27 33 -5 6 -35 15 -67
19 -31 4 -63 9 -71 12 -18 7 -18 -47 0 -90 55 -129 286 -182 391 -89 49 44 72
162 42 220 -31 60 -108 102 -187 102 -38 0 -38 1 -27 25 14 31 19 31 134 -1
52 -14 98 -23 102 -20 10 6 36 115 29 122 -6 7 -295 84 -312 84 -8 0 -38 -49
-70 -117z"/>
<path d="M2650 8532 c-491 -222 -959 -543 -1326 -909 -175 -175 -389 -426
-379 -443 5 -8 488 -380 1785 -1375 223 -171 410 -314 416 -318 7 -4 71 52
160 142 160 159 267 239 437 322 48 24 87 47 87 51 0 4 -33 87 -74 185 -41 98
-76 187 -78 198 -1 11 -6 22 -9 25 -4 3 -33 68 -64 145 -31 77 -66 160 -77
184 -11 25 -26 61 -33 80 -8 20 -30 74 -50 121 -20 47 -44 105 -52 130 -9 25
-19 50 -23 55 -5 6 -34 73 -65 150 -32 77 -74 181 -95 230 -114 277 -141 346
-134 356 4 7 3 9 -2 6 -10 -6 -12 -2 -74 147 -39 93 -40 99 -23 113 17 13 17
14 -3 8 -18 -5 -25 2 -41 42 -11 27 -54 128 -94 226 -41 97 -76 177 -79 177
-3 -1 -52 -22 -110 -48z"/>
<path d="M6167 8568 c-3 -7 -201 -485 -440 -1063 -239 -577 -478 -1153 -530
-1280 l-95 -230 116 -60 c204 -105 416 -271 518 -405 21 -28 43 -49 49 -46 7
2 362 273 791 602 428 329 849 652 934 717 85 66 230 176 322 246 92 69 167
129 167 132 2 17 -238 289 -383 435 -397 396 -842 705 -1324 919 -112 49 -118
51 -125 33z"/>
<path d="M3498 8035 c-61 -20 -114 -72 -129 -127 -32 -120 32 -302 123 -350
100 -51 254 -2 292 93 45 111 -8 305 -100 368 -42 29 -123 36 -186 16z m114
-155 c22 -46 40 -131 36 -171 -6 -64 -71 -65 -100 -2 -37 85 -49 178 -26 201
7 7 26 12 43 10 23 -2 34 -11 47 -38z"/>
<path d="M5303 8039 c-115 -34 -200 -263 -144 -384 36 -78 102 -115 203 -115
51 0 71 5 100 25 98 67 150 272 95 376 -39 74 -169 124 -254 98z m119 -133
c21 -31 -4 -169 -39 -223 -17 -25 -61 -31 -81 -11 -30 30 8 213 50 243 23 15
57 11 70 -9z"/>
<path d="M3697 7429 c-108 -26 -157 -88 -152 -192 5 -109 62 -214 131 -243 84
-35 198 7 241 90 32 62 7 210 -49 286 -37 50 -107 75 -171 59z m52 -118 c41
-41 66 -186 36 -211 -36 -30 -78 14 -100 105 -19 78 -18 82 5 105 25 25 35 25
59 1z"/>
<path d="M3817 6878 c-20 -5 -50 -22 -67 -38 -16 -15 -32 -25 -36 -21 -4 3 -4
1 -1 -5 4 -6 2 -26 -3 -44 -7 -23 -5 -53 4 -99 27 -128 88 -188 179 -177 67 7
108 34 135 86 19 37 22 54 17 100 -8 69 -46 149 -84 178 -36 26 -93 34 -144
20z m87 -132 c11 -22 19 -62 20 -95 1 -56 1 -56 -29 -56 -25 0 -33 7 -48 37
-25 51 -34 137 -16 149 27 17 54 5 73 -35z"/>
<path d="M742 6750 l-23 -41 71 -79 71 -78 -88 24 c-48 13 -95 24 -103 24 -14
0 -68 -86 -59 -94 6 -5 312 -66 331 -66 9 0 28 20 43 45 l26 46 -112 127 c-61
70 -117 128 -123 130 -6 1 -21 -16 -34 -38z"/>
<path d="M7823 6688 c-29 -16 -53 -35 -53 -40 0 -6 20 -45 44 -87 75 -131 72
-117 24 -147 -24 -15 -45 -28 -47 -30 -2 -2 62 -117 76 -134 2 -2 26 8 52 23
l48 26 11 -24 c15 -32 21 -31 82 6 51 31 51 31 34 56 -13 21 -14 27 -3 34 8 5
63 37 123 71 59 35 110 68 113 74 5 13 -52 120 -69 130 -9 6 -246 51 -353 68
-21 3 -45 -4 -82 -26z m287 -118 c9 -1 -95 -60 -106 -60 -9 0 -54 68 -54 82 0
2 35 -1 78 -8 42 -7 79 -13 82 -14z"/>
<path d="M1086 6508 c-7 -13 -30 -51 -49 -85 l-36 -62 96 -57 c53 -31 103 -57
112 -58 12 -1 109 144 111 165 0 5 -45 29 -55 29 -2 0 -16 -20 -31 -45 -14
-25 -32 -45 -40 -45 -18 0 -18 3 7 51 20 39 20 41 2 55 -26 20 -29 18 -54 -26
-13 -22 -26 -40 -29 -40 -19 0 -17 18 8 62 26 48 27 49 8 64 -27 19 -33 18
-50 -8z"/>
<path d="M7447 6429 c-82 -20 -186 -91 -222 -153 -46 -79 -27 -184 48 -258 69
-69 169 -70 284 -2 140 83 179 184 118 304 -47 93 -131 133 -228 109z m124
-166 c13 -35 -3 -58 -73 -103 -101 -66 -163 -65 -163 1 0 31 6 38 63 76 97 66
155 74 173 26z"/>
<path d="M1373 6328 c-24 -28 -83 -125 -83 -138 0 -5 46 -35 101 -66 l102 -58
18 23 c26 32 24 47 -11 68 -34 20 -35 22 -16 49 14 18 15 18 45 1 35 -21 45
-17 66 23 l15 29 -44 21 c-25 11 -52 17 -60 14 -9 -3 -16 -1 -16 5 0 21 -40
51 -68 51 -17 0 -37 -9 -49 -22z m60 -64 c7 -8 -14 -54 -25 -54 -15 0 -21 30
-8 45 13 16 23 19 33 9z"/>
<path d="M302 6031 c-109 -297 -205 -670 -238 -926 l-6 -51 283 -37 c156 -20
779 -102 1384 -182 605 -80 1102 -145 1105 -145 3 0 13 42 23 94 9 52 33 143
52 202 20 59 32 111 28 115 -7 6 -2569 1069 -2577 1069 -1 0 -25 -63 -54 -139z"/>
<path d="M1794 6078 c-15 -24 -28 -44 -29 -46 -1 -1 -33 16 -71 38 -38 22 -74
40 -80 40 -5 0 -17 -15 -26 -32 l-15 -33 96 -57 c53 -32 101 -57 108 -58 10 0
93 132 93 150 0 4 -11 15 -25 24 -24 16 -25 16 -51 -26z"/>
<path d="M6913 6095 c-143 -44 -230 -154 -203 -253 25 -96 104 -158 190 -150
85 8 200 81 236 149 45 88 -16 224 -115 258 -42 14 -55 13 -108 -4z m117 -134
c5 -11 10 -25 10 -31 0 -30 -126 -110 -173 -110 -14 0 -30 7 -37 15 -21 25 -3
61 47 93 86 55 135 66 153 33z"/>
<path d="M1886 5968 c-9 -12 -16 -27 -16 -33 0 -5 42 -34 92 -63 l92 -53 18
23 c10 13 18 28 18 35 0 10 -167 113 -183 113 -3 0 -13 -10 -21 -22z"/>
<path d="M2122 5821 l-32 -59 76 -42 c42 -23 77 -40 79 -38 1 2 17 29 35 61
27 48 30 61 19 68 -22 14 -29 11 -47 -21 -18 -32 -39 -42 -27 -12 22 51 -10
88 -33 37 -6 -14 -17 -25 -23 -25 -6 0 -2 16 11 37 17 29 18 38 8 44 -24 16
-33 9 -66 -50z"/>
<path d="M2344 5742 c-18 -12 -44 -56 -44 -74 0 -23 27 -48 53 -48 11 0 34 12
49 27 22 21 28 23 28 10 0 -9 -6 -17 -13 -17 -8 0 -19 -11 -25 -25 -10 -21 -9
-27 4 -32 22 -8 60 15 73 44 18 39 13 71 -13 88 -26 17 -50 11 -76 -19 -7 -9
-17 -16 -23 -16 -5 0 2 12 17 26 14 15 26 31 26 35 0 11 -41 12 -56 1z"/>
<path d="M8451 5727 c-31 -10 -33 -12 -26 -46 17 -87 25 -80 -128 -121 -75
-20 -140 -40 -144 -43 -3 -4 3 -39 14 -79 17 -61 23 -72 39 -70 24 5 497 132
500 135 2 1 -5 28 -13 60 -12 43 -21 57 -35 57 -45 0 -88 29 -110 74 -24 49
-34 53 -97 33z"/>
<path d="M2523 5643 c-13 -5 -58 -72 -52 -77 14 -12 100 -58 102 -55 44 63 47
102 10 107 -13 2 -23 7 -23 12 0 10 -22 18 -37 13z m47 -68 c0 -8 -4 -15 -10
-15 -5 0 -7 7 -4 15 4 8 8 15 10 15 2 0 4 -7 4 -15z"/>
<path d="M7785 5579 c-128 -18 -235 -92 -251 -174 -17 -93 32 -201 111 -243
80 -42 265 -3 341 73 48 49 60 88 51 167 -16 131 -110 197 -252 177z m120
-155 c29 -29 15 -66 -34 -91 -56 -28 -142 -48 -175 -39 -50 12 -58 73 -13 98
33 18 138 46 174 47 17 1 39 -6 48 -15z"/>
<path d="M2621 5544 c-12 -20 -19 -40 -15 -45 5 -9 78 -49 88 -49 2 0 14 16
26 36 16 25 19 39 12 46 -8 8 -17 4 -32 -13 -19 -22 -20 -22 -11 -2 14 29 -7
43 -26 18 -7 -11 -13 -14 -13 -8 0 7 5 15 10 18 14 9 12 22 -4 28 -9 4 -22 -7
-35 -29z"/>
<path d="M2744 5499 c-3 -6 6 -22 22 -35 20 -16 24 -23 14 -24 -9 0 -21 5 -27
11 -12 12 -43 6 -43 -8 0 -15 66 -44 83 -37 9 3 20 18 24 32 5 20 0 30 -23 49
-33 26 -40 28 -50 12z"/>
<path d="M2826 5425 c-22 -33 -21 -37 15 -58 35 -20 53 -14 44 14 -5 14 -3 17
9 13 31 -12 16 24 -16 40 -38 20 -33 21 -52 -9z"/>
<path d="M2912 5375 c-16 -35 -16 -50 1 -37 10 9 19 8 35 -3 15 -12 23 -12 28
-3 4 7 -1 18 -14 26 -12 8 -22 21 -22 28 0 23 -16 16 -28 -11z"/>
<path d="M7131 5380 c-128 -43 -174 -123 -140 -245 23 -82 111 -133 207 -119
121 17 213 82 227 158 10 48 -12 131 -43 168 -50 60 -145 74 -251 38z m177
-122 c19 -19 14 -56 -10 -72 -13 -8 -54 -22 -91 -32 -53 -13 -74 -14 -93 -6
-33 15 -34 66 -1 83 65 35 172 50 195 27z"/>
<path d="M4378 4835 c-26 -7 -62 -21 -80 -32 -54 -30 -143 -124 -171 -182 -36
-72 -35 -100 0 -32 97 188 347 240 480 100 112 -118 63 -319 -78 -319 -73 0
-121 76 -64 102 52 24 16 88 -50 88 -65 0 -134 -77 -135 -150 0 -78 59 -167
135 -201 63 -29 177 -26 242 7 57 28 112 83 141 141 40 79 50 195 22 267 -4
12 -7 24 -6 28 0 4 -8 13 -18 21 -12 9 -16 19 -11 27 5 8 4 11 -2 7 -6 -4 -21
5 -34 20 -40 43 -122 91 -186 107 -71 19 -119 19 -185 1z"/>
<path d="M8300 4486 l0 -226 70 0 70 0 0 113 0 112 60 -92 c74 -115 102 -135
185 -131 112 7 165 74 165 209 -1 141 -74 229 -191 229 l-39 0 0 -74 0 -73 36
-6 c49 -8 64 -23 64 -63 0 -25 -7 -38 -25 -50 -35 -23 -66 -8 -108 52 -111
160 -169 213 -243 222 l-44 5 0 -227z"/>
<path d="M423 4683 c-13 -2 -36 -18 -53 -34 -16 -17 -30 -26 -30 -20 0 22 -62
43 -112 39 -88 -9 -138 -82 -138 -203 0 -116 56 -197 144 -212 l36 -6 0 74 c0
67 -2 75 -22 84 -45 20 -38 106 8 113 26 4 44 -18 53 -61 6 -30 10 -32 54 -35
l47 -3 0 35 c0 42 22 66 59 66 37 0 51 -17 51 -60 0 -39 -24 -70 -54 -70 -15
0 -16 -10 -14 -77 l3 -78 35 4 c44 4 78 21 112 58 39 41 51 79 51 165 0 94
-27 157 -82 193 -36 24 -107 37 -148 28z"/>
<path d="M7815 4681 c-105 -27 -155 -93 -155 -204 0 -93 29 -143 105 -182 52
-26 69 -30 144 -30 98 0 148 15 196 57 48 41 69 103 62 179 -11 123 -85 181
-237 186 -47 1 -98 -1 -115 -6z m169 -151 c51 -11 70 -31 62 -63 -4 -16 -17
-29 -37 -36 -43 -15 -168 -14 -199 2 -31 16 -38 57 -13 79 28 25 119 34 187
18z"/>
<path d="M1065 4660 c-83 -18 -119 -76 -113 -181 2 -43 0 -69 -7 -69 -28 1
-34 19 -37 115 l-3 100 -58 3 -58 3 3 -158 3 -157 100 -18 c55 -9 114 -20 131
-23 l31 -5 6 66 c5 50 3 72 -8 87 -8 12 -15 29 -15 39 0 25 36 58 63 58 52 0
77 -79 37 -115 -17 -15 -19 -26 -14 -74 8 -82 9 -82 41 -70 70 26 113 100 112
194 0 96 -30 160 -89 190 -34 17 -88 23 -125 15z"/>
<path d="M7265 4666 c-5 -3 -27 -7 -48 -11 -86 -14 -146 -111 -131 -211 14
-96 80 -146 202 -152 91 -5 154 12 197 52 89 84 60 254 -51 302 -31 13 -150
27 -169 20z m135 -149 c33 -17 37 -51 8 -71 -34 -24 -168 -22 -198 2 -27 22
-20 58 13 72 33 13 149 11 177 -3z"/>
<path d="M1538 4641 c-89 -29 -132 -88 -131 -182 2 -123 75 -182 225 -182 125
0 201 50 218 142 16 90 -20 169 -94 208 -35 18 -178 27 -218 14z m190 -148
c30 -18 26 -53 -8 -70 -36 -18 -160 -17 -188 3 -23 16 -28 39 -13 63 20 31
162 34 209 4z"/>
<path d="M4083 4420 c0 -36 2 -50 4 -32 2 17 2 47 0 65 -2 17 -4 3 -4 -33z"/>
<path d="M1688 3915 c-123 -34 -185 -105 -175 -201 15 -145 125 -206 284 -159
138 41 196 145 147 263 -41 99 -129 132 -256 97z m136 -125 c18 -6 26 -17 26
-33 0 -32 -25 -52 -89 -71 -100 -29 -151 -15 -137 38 6 25 57 51 131 66 22 4
41 8 42 9 1 1 13 -3 27 -9z"/>
<path d="M7080 3908 c-72 -37 -116 -144 -90 -222 29 -90 187 -164 304 -142
108 20 175 184 114 277 -33 49 -135 98 -218 105 -55 5 -72 2 -110 -18z m151
-124 c87 -24 119 -63 83 -98 -19 -20 -65 -20 -128 -1 -89 27 -110 51 -86 96
13 24 53 25 131 3z"/>
<path d="M5980 3806 c-17 -52 -129 -243 -195 -330 -60 -82 -187 -215 -263
-279 l-44 -36 63 -83 c64 -83 888 -1158 1378 -1795 l263 -343 42 33 c219 172
488 436 684 672 152 182 261 335 378 529 126 209 307 576 292 592 -4 3 -156
68 -340 144 -183 75 -754 312 -1268 525 -514 213 -945 391 -957 396 -19 7 -23
4 -33 -25z"/>
<path d="M2045 3466 c-478 -199 -1053 -437 -1277 -530 -225 -93 -408 -171
-408 -173 0 -15 144 -314 205 -425 218 -399 435 -689 760 -1014 173 -174 412
-385 433 -383 6 0 1565 2028 1676 2178 l28 39 -129 129 c-71 70 -145 146 -163
168 -53 65 -125 179 -177 280 -30 59 -54 95 -63 94 -8 -1 -406 -164 -885 -363z"/>
<path d="M7644 3791 c-68 -41 -104 -116 -104 -216 0 -101 56 -165 153 -173 94
-8 148 39 169 145 14 71 12 67 36 54 20 -11 20 -12 -5 -102 -13 -50 -22 -96
-19 -104 4 -11 63 -28 100 -30 8 0 89 285 82 292 -4 4 -236 113 -240 113 -3 0
-14 -25 -25 -55 -15 -39 -19 -68 -15 -94 10 -65 -43 -101 -94 -65 -39 27 -20
114 25 114 6 0 14 21 18 48 3 26 9 57 12 70 5 19 1 22 -28 22 -19 0 -48 -9
-65 -19z"/>
<path d="M1123 3789 c-94 -18 -177 -70 -209 -131 -8 -15 -14 -50 -14 -79 0
-206 171 -285 388 -178 107 52 145 144 107 258 -37 112 -133 158 -272 130z
m139 -151 c44 -36 22 -78 -55 -106 -85 -32 -144 -38 -167 -17 -28 26 -25 61 7
82 27 18 141 51 179 52 11 1 27 -5 36 -11z"/>
<path d="M8258 3640 c-77 -41 -123 -143 -116 -255 3 -45 10 -73 24 -92 53 -71
148 -101 208 -65 l34 20 12 -24 c30 -56 136 -69 198 -25 17 12 43 47 59 79 34
70 39 176 10 229 -17 32 -81 83 -103 83 -7 0 -20 -32 -29 -70 l-17 -70 22 -18
c19 -16 22 -24 16 -55 -16 -88 -100 -59 -93 32 2 21 -4 27 -41 37 l-42 13 -14
-34 c-17 -40 -43 -56 -73 -44 -36 13 -46 43 -29 84 14 33 21 37 70 39 25 2 65
134 44 147 -23 15 -102 9 -140 -11z"/>
<path d="M525 3520 c-116 -31 -229 -63 -253 -69 -33 -9 -42 -16 -38 -29 3 -9
10 -36 16 -59 9 -38 14 -42 50 -48 46 -8 84 -43 101 -92 8 -24 15 -33 26 -29
9 4 35 11 59 17 24 6 44 12 44 13 0 1 -7 26 -16 55 -8 29 -13 55 -11 57 2 3
67 22 143 43 90 24 140 42 142 52 4 22 -32 142 -43 144 -5 2 -104 -23 -220
-55z"/>
<path d="M4998 2914 c-184 -64 -268 -77 -518 -80 l-225 -4 -7 -32 c-13 -68
-362 -2738 -357 -2742 2 -2 52 -9 110 -15 605 -65 1232 -2 1813 180 112 35
354 124 363 133 3 3 -225 557 -812 1971 -84 204 -177 427 -206 498 -28 70 -54
127 -58 126 -3 0 -50 -16 -103 -35z m-33 -174 l17 -70 33 6 c28 5 33 3 38 -17
4 -13 5 -25 3 -26 -8 -8 -182 -51 -188 -46 -5 2 -8 15 -8 27 0 18 7 25 29 29
l30 6 -20 68 c-10 37 -17 73 -15 80 5 11 44 22 57 16 4 -2 15 -34 24 -73z
m142 -272 c20 -77 26 -115 18 -120 -5 -3 -48 -16 -94 -28 -68 -17 -86 -19 -92
-8 -17 27 -8 38 46 53 49 15 66 31 49 48 -3 3 -26 -1 -51 -8 -38 -11 -45 -11
-50 1 -9 25 5 43 42 50 38 7 50 17 42 39 -5 11 -14 11 -57 -2 -60 -17 -83 -12
-78 19 2 18 17 25 83 43 44 13 87 23 96 24 12 1 23 -26 46 -111z m43 -191 c60
-30 88 -123 55 -186 -28 -55 -145 -83 -198 -48 -51 33 -71 120 -41 178 28 54
127 85 184 56z m139 -388 c17 -64 31 -120 31 -126 0 -14 -144 -53 -192 -53
-28 0 -42 7 -57 26 -25 31 -26 52 -6 80 13 19 12 22 -9 32 -23 10 -62 97 -48
106 4 2 24 7 45 11 35 7 37 6 43 -24 9 -41 26 -54 64 -46 27 6 31 10 26 31 -3
13 -9 35 -12 48 -5 21 -1 25 33 33 21 6 41 7 45 4 3 -3 20 -58 37 -122z m74
-241 c44 -155 59 -220 51 -228 -5 -5 -26 -11 -46 -15 -36 -7 -37 -7 -48 34 -6
23 -14 40 -18 37 -5 -3 -18 -27 -31 -54 -22 -46 -28 -51 -75 -65 -28 -8 -52
-13 -54 -12 -2 1 13 29 33 61 19 33 35 62 35 65 0 3 -36 38 -80 77 -44 39 -76
73 -72 75 4 2 21 7 37 11 17 4 38 9 47 12 12 3 35 -11 68 -42 42 -39 53 -45
61 -33 9 13 8 23 -7 82 -4 20 0 25 28 34 53 17 56 16 71 -39z m131 -429 c41
-155 41 -153 -22 -165 -30 -6 -39 -2 -75 32 -23 22 -57 52 -74 68 l-33 29 20
-69 c28 -96 27 -99 -24 -111 l-44 -10 -36 137 c-20 75 -36 142 -36 147 0 12
52 33 79 33 9 0 46 -30 84 -65 37 -36 67 -60 67 -53 0 8 -8 44 -19 81 -13 48
-15 70 -7 72 6 2 18 6 26 8 53 18 55 15 94 -134z m76 -211 c0 -7 -7 -78 -15
-158 -8 -80 -15 -150 -15 -157 0 -14 -101 -47 -110 -36 -17 19 -190 271 -190
275 0 3 21 11 47 17 42 11 49 10 60 -5 11 -15 18 -16 68 -5 47 11 55 16 55 35
0 17 8 26 33 34 45 14 67 14 67 0z m110 -440 c12 -46 32 -121 45 -168 13 -47
21 -88 17 -91 -12 -11 -207 -59 -239 -59 -62 0 -110 70 -82 121 9 19 9 24 -1
27 -33 11 -60 52 -60 90 0 61 28 88 123 117 97 29 148 43 163 44 7 1 22 -36
34 -81z"/>
<path d="M5059 2217 c-49 -25 -26 -127 29 -127 36 0 52 17 52 53 0 59 -39 94
-81 74z"/>
<path d="M5152 1829 c-39 -15 -24 -44 21 -43 45 2 51 6 42 33 -7 22 -26 25
-63 10z"/>
<path d="M5418 873 c-24 -6 -23 -10 12 -63 l30 -45 0 35 c0 19 3 45 6 58 7 23
-5 26 -48 15z"/>
<path d="M5502 525 c-26 -11 -33 -20 -30 -37 3 -20 9 -23 46 -22 52 1 65 12
56 48 -7 29 -23 32 -72 11z"/>
<path d="M5543 400 c-24 -10 -31 -44 -12 -55 6 -4 26 -4 45 0 31 5 35 9 32 33
-3 30 -27 38 -65 22z"/>
<path d="M2995 2221 c-50 -22 -89 -68 -127 -146 -48 -102 -34 -179 44 -238
114 -88 234 -42 309 117 49 103 35 181 -43 238 -36 28 -89 48 -122 48 -12 0
-39 -9 -61 -19z m133 -139 c7 -46 -85 -182 -123 -182 -25 0 -47 37 -40 69 9
42 80 148 102 154 25 6 57 -16 61 -41z"/>
<path d="M3664 1942 c-51 -24 -81 -66 -105 -144 -26 -82 -24 -153 4 -202 29
-52 95 -87 164 -88 93 0 150 50 184 163 50 164 -9 269 -159 285 -34 3 -59 -1
-88 -14z m120 -108 c9 -8 16 -25 16 -37 0 -34 -27 -126 -44 -153 -19 -27 -57
-32 -76 -9 -21 26 7 158 42 195 23 24 41 25 62 4z"/>
<path d="M2709 1736 c-67 -24 -115 -73 -167 -171 -21 -40 -26 -64 -27 -121 0
-62 3 -75 28 -107 56 -74 163 -113 240 -88 111 37 216 231 187 343 -16 59 -83
122 -151 143 -62 18 -64 18 -110 1z m109 -132 c30 -21 28 -50 -10 -123 -52
-101 -100 -133 -145 -98 -32 24 8 134 72 203 36 38 50 41 83 18z"/>
<path d="M6094 1721 c-135 -62 -165 -191 -78 -338 83 -140 184 -179 304 -118
140 70 153 215 34 376 -68 93 -165 123 -260 80z m143 -179 c66 -98 74 -154 25
-173 -34 -13 -63 9 -108 82 -60 97 -56 163 10 157 26 -2 38 -14 73 -66z"/>
<path d="M3504 1392 c-85 -40 -144 -159 -144 -290 0 -94 26 -137 105 -177 153
-76 273 -11 321 175 22 87 16 167 -18 218 -50 75 -182 112 -264 74z m134 -124
c27 -27 -4 -185 -44 -229 -21 -23 -57 -25 -74 -4 -19 23 -6 124 23 189 23 49
30 56 54 56 16 0 34 -5 41 -12z"/>
<path d="M2380 1201 c-24 -48 -36 -57 -55 -41 -22 18 -40 7 -68 -44 l-25 -46
25 -18 26 -19 -72 -126 c-40 -69 -71 -130 -68 -134 3 -4 34 -23 69 -41 l63
-33 175 64 175 64 33 49 c17 27 32 54 32 61 0 6 -44 37 -97 69 -54 31 -100 58
-102 60 -2 2 9 24 24 49 15 26 25 48 23 49 -9 7 -130 76 -133 76 -3 0 -14 -18
-25 -39z m130 -301 c0 -6 -152 -62 -155 -58 -1 2 13 29 32 60 l33 57 45 -27
c25 -15 45 -29 45 -32z"/>
<path d="M6423 1191 c-54 -25 -132 -97 -149 -138 -21 -49 -17 -103 12 -161 57
-115 185 -132 290 -39 38 32 42 32 46 -3 3 -20 -10 -31 -84 -74 -48 -28 -90
-54 -93 -58 -7 -6 22 -68 48 -102 14 -19 20 -16 161 65 80 46 146 88 146 93 0
10 -88 254 -98 272 -12 20 -133 -40 -154 -76 -17 -30 -56 -47 -82 -37 -26 10
-49 55 -42 82 9 35 61 61 93 46 22 -10 32 -6 89 35 36 25 63 51 61 57 -2 7
-21 22 -43 34 -50 29 -141 31 -201 4z"/>
<path d="M3248 768 c-10 -35 -14 -66 -10 -69 4 -3 48 -16 97 -29 50 -13 93
-26 98 -30 4 -3 -32 -18 -80 -33 -116 -35 -150 -57 -175 -114 -40 -92 -4 -179
94 -229 98 -50 205 -43 273 18 33 28 74 112 62 124 -3 4 -36 15 -72 25 l-65
18 -18 -37 c-22 -47 -60 -62 -96 -38 -35 22 -35 67 0 95 14 11 55 30 92 42
100 33 175 73 210 114 31 34 50 80 39 91 -7 7 -403 114 -420 114 -7 0 -20 -28
-29 -62z"/>
</g>
</svg>
